<svg version="1.1" xmlns="http://www.w3.org/2000/svg" xmlns:xlink="http://www.w3.org/1999/xlink" width="19px" height="32px" viewBox="0,0,152,256"><g fill="#444444" fill-rule="nonzero" stroke="none" stroke-width="1" stroke-linecap="butt" stroke-linejoin="miter" stroke-miterlimit="10" stroke-dasharray="" stroke-dashoffset="0" font-family="none" font-weight="none" font-size="none" text-anchor="none" style="mix-blend-mode: normal"><g transform="translate(0.3483,-0.50868) scale(8,8)"><g id="surface1"><path d="M8.00781,0.21875c-2.28516,0.42578 -4.30469,1.71484 -5.53906,3.54688c-1.78125,2.60938 -1.875,6.15625 -0.24219,8.76172c1.41016,2.26563 3.73047,3.70703 6.38281,3.97266c4.23828,0.43359 8.10938,-2.29687 9.07422,-6.39453c0.23828,-1.02734 0.22266,-2.64062 -0.04687,-3.71094c-0.73437,-2.9375 -3.08984,-5.26953 -6.08594,-6.03125c-0.95703,-0.24609 -2.63672,-0.31641 -3.54297,-0.14453zM10.72656,5.17969c1.33594,0.48828 2.1875,1.72266 2.17969,3.16406c0,1.01563 -0.33594,1.76953 -1.08594,2.45703c-0.66797,0.60938 -1.42969,0.89844 -2.34766,0.89844c-1.03125,0 -1.83594,-0.34375 -2.52344,-1.05859c-1.875,-1.96094 -0.82422,-5.10937 1.88281,-5.65234c0.51953,-0.09766 1.30078,-0.02734 1.89453,0.19141zM10.72656,5.17969"></path><path d="M1.625,17.00781c-1.375,0.49609 -2.00391,2.14844 -1.30078,3.38281c0.14844,0.27344 0.41797,0.59766 0.59375,0.73438c0.81641,0.61719 3.0625,1.625 4.37109,1.95703c0.33203,0.08203 0.64063,0.17578 0.6875,0.20313c0.03516,0.02734 -1.05859,1.16016 -2.43359,2.51172c-2.76172,2.70313 -2.88281,2.86719 -2.89453,3.81641c0,1.77734 1.91406,2.92969 3.53516,2.13281c0.26172,-0.12891 1.28125,-1.05078 2.83984,-2.56641l2.4375,-2.36719l2.44141,2.36719c1.55859,1.51562 2.57813,2.4375 2.83984,2.56641c1.625,0.79688 3.53516,-0.35547 3.53516,-2.13281c-0.01172,-0.94922 -0.12891,-1.11328 -2.89453,-3.81641c-1.375,-1.35156 -2.46875,-2.48437 -2.42969,-2.51172c0.04297,-0.02734 0.35156,-0.12109 0.68359,-0.20312c1.30859,-0.33203 3.55469,-1.33984 4.37109,-1.95703c0.17578,-0.13672 0.44531,-0.46094 0.59375,-0.73437c0.23047,-0.41016 0.27734,-0.58203 0.27734,-1.11719c-0.00781,-1.08594 -0.62891,-1.94141 -1.66016,-2.27734c-0.76172,-0.24219 -1.35547,-0.14453 -2.48437,0.44531c-1.8125,0.94531 -3.34375,1.33594 -5.27344,1.33594c-1.92969,0 -3.45703,-0.39062 -5.27734,-1.33594c-0.84375,-0.44531 -1.04688,-0.50781 -1.57813,-0.53516c-0.38672,-0.01562 -0.75,0.01953 -0.98047,0.10156zM1.625,17.00781"></path></g></g></g></svg>