<svg version="1.1" xmlns="http://www.w3.org/2000/svg" xmlns:xlink="http://www.w3.org/1999/xlink" width="38px" height="32px" viewBox="0,0,256,215.57813"><g fill="#444444" fill-rule="nonzero" stroke="none" stroke-width="1" stroke-linecap="butt" stroke-linejoin="miter" stroke-miterlimit="10" stroke-dasharray="" stroke-dashoffset="0" font-family="none" font-weight="none" font-size="none" text-anchor="none" style="mix-blend-mode: normal"><g transform="translate(-0.33391,-0.0434) scale(6.73684,6.73684)"><g id="surface1"><path d="M18.67578,6.77344c-9.48047,3.65625 -17.42969,6.77734 -17.67969,6.93359c-0.51172,0.30859 -0.89844,0.82031 -0.89844,1.17578c0,0.14844 0.14062,0.38672 0.32812,0.57422c0.25391,0.25781 0.60156,0.40625 1.74609,0.76953c0.78906,0.25781 2.89453,0.91797 4.67188,1.48047l3.23828,1.03906l9.84766,-6.23437c5.41016,-3.42578 10.04297,-6.32812 10.28906,-6.45703c0.55078,-0.29688 1.125,-0.27734 1.16406,0.02734c0.01953,0.16016 -1.72656,1.78906 -8.17578,7.59766c-4.75,4.28516 -8.21484,7.47656 -8.24609,7.59375c-0.03906,0.20703 -0.54297,8.12891 -0.54297,8.52344c0,0.28516 0.19922,0.28516 0.78906,0.01953c0.28906,-0.12891 0.95703,-0.71094 1.92578,-1.64844c0.80859,-0.80078 1.86719,-1.82812 2.33984,-2.28125l0.85156,-0.82812l4.38281,3.23828c2.40234,1.78516 4.57422,3.32813 4.80859,3.4375c0.65234,0.28516 1.49219,0.20703 1.89844,-0.1875c0.16797,-0.16016 0.38281,-0.44531 0.48438,-0.64453c0.10547,-0.19531 0.50391,-1.81641 0.87891,-3.60547c4.82813,-22.57422 5.25391,-24.66797 5.22266,-25.44141c-0.03125,-0.83984 -0.1875,-1.13281 -0.76953,-1.53906c-0.70312,-0.47266 0.12891,-0.76953 -18.55469,6.45703zM18.67578,6.77344"></path></g></g></g></svg>