<svg version="1.1" xmlns="http://www.w3.org/2000/svg" xmlns:xlink="http://www.w3.org/1999/xlink" width="32px" height="32px" viewBox="0,0,256,256"><g fill="#444444" fill-rule="nonzero" stroke="none" stroke-width="1" stroke-linecap="butt" stroke-linejoin="miter" stroke-miterlimit="10" stroke-dasharray="" stroke-dashoffset="0" font-family="none" font-weight="none" font-size="none" text-anchor="none" style="mix-blend-mode: normal"><g transform="translate(0.32387,0.20399) scale(8,8)"><g id="surface1"><path d="M8.39063,0.05078c-4.92969,0.38281 -7.01953,1.80859 -7.89453,5.36328c-0.44531,1.76172 -0.44531,1.85156 -0.48047,9.82813c-0.03125,7.66406 0,8.66797 0.29297,10.36719c0.17969,1.06641 0.57422,2.26953 0.98828,3.00391c0.41016,0.72656 1.27344,1.58984 2,2c1.12109,0.62891 2.74219,1.04297 4.81641,1.21484c1.29688,0.11328 14.38672,0.11328 15.68359,0c2.07422,-0.17187 3.69531,-0.58594 4.81641,-1.21484c0.72656,-0.41016 1.58984,-1.27344 2,-2c0.62891,-1.12109 1.04297,-2.74219 1.21484,-4.81641c0.11328,-1.29687 0.11328,-14.38672 0,-15.68359c-0.17187,-2.07422 -0.58594,-3.70313 -1.21484,-4.80859c-0.38281,-0.68359 -1.19141,-1.52344 -1.83984,-1.91016c-0.95313,-0.57812 -2.16797,-0.96094 -3.90625,-1.21484c-0.76172,-0.12109 -1.71484,-0.13281 -8.5,-0.14063c-4.20313,-0.00781 -7.78906,0 -7.97656,0.01172zM8.95313,10.20313c0.25391,0.11328 0.42578,0.40234 0.73047,1.25781c1.05078,2.89062 2.89453,5.76562 3.69531,5.76562c0.38281,0 0.40234,-0.14844 0.40234,-2.50781c0,-2.49219 -0.01953,-2.64453 -0.55859,-3.40625c-0.39844,-0.5625 -0.42969,-0.81641 -0.14453,-1.04297c0.19531,-0.14844 0.29297,-0.15625 2.24609,-0.15625h2.04688l0.21094,0.17969l0.20703,0.17969l0.02344,2.76172c0.02344,2.38281 0.04688,2.77344 0.14063,2.88672c0.17578,0.1875 0.32422,0.16406 0.72266,-0.09766c0.73828,-0.49609 1.89453,-2.15234 2.93359,-4.21875c0.44141,-0.88281 0.75,-1.39453 0.88672,-1.49609c0.19141,-0.14453 0.32813,-0.16016 1.60938,-0.17969c1.57813,-0.03125 1.92578,0.02734 2.04297,0.33594c0.19531,0.51563 -0.62891,2.15625 -2.5,4.95703c-0.83203,1.25391 -0.89844,1.39453 -0.76563,1.71094c0.0625,0.13281 0.57031,0.72656 1.14063,1.30859c1.53516,1.59766 2.48437,2.87109 2.59766,3.46875c0.0625,0.32031 -0.07422,0.63672 -0.32812,0.76563c-0.13672,0.06641 -0.62109,0.09766 -1.64062,0.09766c-1.3125,0 -1.49219,-0.01563 -1.76953,-0.15234c-0.20703,-0.09766 -0.63672,-0.50781 -1.26562,-1.19922c-1.75781,-1.94531 -3.00391,-2.75391 -3.60156,-2.36719l-0.1875,0.12109l-0.00781,1.29688c0,1.55859 -0.04687,1.82813 -0.30078,2.01563c-0.30469,0.23047 -1.15234,0.32813 -2.03516,0.22266c-2.07422,-0.22266 -3.97266,-1.30078 -5.69531,-3.23438c-0.51562,-0.57031 -1.94531,-2.70312 -2.55469,-3.80469c-1.18359,-2.12109 -2.04297,-4.53516 -1.83984,-5.14062c0.04297,-0.13281 0.15625,-0.28516 0.24609,-0.32812c0.23047,-0.11328 3.05469,-0.11328 3.3125,0zM8.95313,10.20313"></path></g></g></g></svg>